<svg xmlns="http://www.w3.org/2000/svg" viewBox="-62 -64 208 143" role="img" aria-labelledby="km-title">
<title id="km-title">Huff the dust cloud, Steady's sidekick for gym workouts and running in the heat, happy, with a big open smile</title>
<!-- Drawn by kit/art/make-kindlemere.js (keeper fitness-huff, mood happy). Edit that file, not this one. -->
<style>
  .km-night-only, .km-evening-only { display: none; }
  svg[data-km-evening="1"] .km-evening-only { display: inline; }
  svg[data-km-night="1"] .km-night-only { display: inline; }
  svg[data-km-night="1"] .km-day-only { display: none; }
  .km-screen { mix-blend-mode: screen; }
  .km-grain { mix-blend-mode: multiply; }
  .km-bob { animation: km-bob 3.6s ease-in-out infinite alternate; }
  .km-drift { animation: km-drift 40s ease-in-out infinite alternate; }
  .km-turn { animation: km-turn 90s linear infinite; }
  .km-twinkle { animation: km-twinkle 2.8s ease-in-out infinite; transform-box: fill-box; transform-origin: center; }
  .km-fall { animation: km-fall 1.4s linear infinite; }
  .km-light { animation: km-light 7s linear infinite; }
  .km-steam { animation: km-steam 3s ease-in-out infinite; }
  .km-flag { animation: km-flag 2.4s ease-in-out infinite alternate; transform-box: fill-box; transform-origin: left center; }
  .km-wag { animation: km-wag 0.6s ease-in-out infinite alternate; transform-box: fill-box; transform-origin: left bottom; }
  .km-gallop { animation: km-gallop 0.45s ease-in-out infinite alternate; }
  .km-sway { animation: km-sway 6s ease-in-out infinite alternate; transform-box: fill-box; transform-origin: bottom; }
  .km-buzz { animation: km-buzz 1.6s ease-in-out infinite alternate; }
  .km-fish { animation: km-fish 7s ease-in-out infinite; }
  .km-ff { animation: km-ff 10s ease-in-out infinite; }
  .km-blink { animation: km-blink 2.6s ease-in-out infinite; }
  .km-zz { animation: km-zz 3.2s ease-in-out infinite; }
  .km-breathe { animation: km-breathe 3.4s ease-in-out infinite; transform-box: fill-box; transform-origin: center bottom; }
  .km-ear-l, .km-ear-r { transform-box: fill-box; transform-origin: bottom center; animation: km-ear 4s ease-in-out infinite; }
  .km-ear-r { animation-delay: -0.4s; }
  .km-treat, .km-card-wave { animation: km-lift 2.6s ease-in-out infinite alternate; }
  @keyframes km-bob { from { transform: translateY(0); } to { transform: translateY(-4px); } }
  @keyframes km-gallop { from { transform: translateY(0) rotate(0deg); } to { transform: translateY(-5px) rotate(-2deg); } }
  @keyframes km-drift { from { transform: translateX(0); } to { transform: translateX(36px); } }
  @keyframes km-turn { to { transform: rotate(360deg); } }
  @keyframes km-twinkle { 0%, 100% { opacity: 1; transform: scale(1); } 50% { opacity: 0.55; transform: scale(0.8); } }
  @keyframes km-fall { to { stroke-dashoffset: -40; } }
  @keyframes km-light { to { stroke-dashoffset: -280; } }
  @keyframes km-steam { 0% { opacity: 0; transform: translateY(6px); } 40% { opacity: 0.9; } 100% { opacity: 0; transform: translateY(-10px); } }
  @keyframes km-flag { from { transform: skewY(0deg); } to { transform: skewY(6deg); } }
  @keyframes km-wag { from { transform: rotate(-10deg); } to { transform: rotate(14deg); } }
  @keyframes km-sway { from { transform: rotate(-1.5deg); } to { transform: rotate(1.5deg); } }
  @keyframes km-buzz { from { transform: translate(0, 0); } to { transform: translate(3px, -2px); } }
  @keyframes km-fish { 0%, 70%, 100% { transform: translateY(30px); opacity: 0; } 78% { opacity: 1; } 85% { transform: translateY(-8px); opacity: 1; } 92% { transform: translateY(20px); opacity: 0; } }
  @keyframes km-ff { 0%, 100% { transform: translate(0, 0); } 25% { transform: translate(14px, -10px); } 50% { transform: translate(26px, 4px); } 75% { transform: translate(8px, 14px); } }
  @keyframes km-blink { 0%, 100% { opacity: 1; } 45% { opacity: 0.25; } 60% { opacity: 1; } }
  @keyframes km-zz { 0% { opacity: 0; transform: translate(0, 6px); } 30% { opacity: 1; } 100% { opacity: 0; transform: translate(6px, -14px); } }
  @keyframes km-breathe { 0%, 100% { transform: scale(1, 1); } 50% { transform: scale(1.02, 1.05); } }
  @keyframes km-ear { 0%, 80%, 100% { transform: rotate(0deg); } 88% { transform: rotate(-6deg); } 94% { transform: rotate(3deg); } }
  @keyframes km-lift { from { transform: translateY(0); } to { transform: translateY(-3px); } }
  @media (prefers-reduced-motion: reduce) { svg * { animation: none !important; } }
</style>
<defs>
    <filter id="layer" x="-10%" y="-10%" width="120%" height="130%"><feDropShadow dx="0" dy="5" stdDeviation="0" flood-color="#1A2433" flood-opacity="0.18"/></filter>
    <filter id="layer-sm" x="-10%" y="-10%" width="120%" height="130%"><feDropShadow dx="0" dy="3" stdDeviation="0" flood-color="#1A2433" flood-opacity="0.2"/></filter>
    <filter id="grain" x="0" y="0" width="100%" height="100%"><feTurbulence type="fractalNoise" baseFrequency="0.85" numOctaves="2" seed="7" result="n"/><feColorMatrix in="n" type="matrix" values="0 0 0 0 0.1  0 0 0 0 0.14  0 0 0 0 0.2  0 0 0 0.55 -0.12"/></filter>
    <filter id="km-light" x="0" y="0" width="100%" height="100%" color-interpolation-filters="sRGB"><feColorMatrix id="km-light-m" type="matrix" values="1 0 0 0 0  0 1 0 0 0  0 0 1 0 0  0 0 0 1 0"/></filter>
    <linearGradient id="km-sky-g" gradientUnits="userSpaceOnUse" x1="0" y1="0" x2="0" y2="900"><stop id="km-sky-0" offset="0" stop-color="#7FB8D8"/><stop id="km-sky-1" offset="0.6" stop-color="#B4D8E6"/><stop id="km-sky-2" offset="1" stop-color="#EAF3EC"/></linearGradient>
    <radialGradient id="km-glow-g"><stop offset="0" stop-color="#FFB46E" stop-opacity="0.9"/><stop offset="0.4" stop-color="#FFC98F" stop-opacity="0.4"/><stop offset="1" stop-color="#FFC98F" stop-opacity="0"/></radialGradient>
    <linearGradient id="km-fade-orchard-1" gradientUnits="userSpaceOnUse" x1="560" y1="0" x2="690" y2="0"><stop offset="0" stop-color="#525C12" stop-opacity="1"/><stop offset="1" stop-color="#525C12" stop-opacity="0"/></linearGradient>
    <linearGradient id="km-fade-orchard-2" gradientUnits="userSpaceOnUse" x1="560" y1="0" x2="690" y2="0"><stop offset="0" stop-color="#7D8A26" stop-opacity="1"/><stop offset="1" stop-color="#7D8A26" stop-opacity="0"/></linearGradient>
    <linearGradient id="km-fade-field-1" gradientUnits="userSpaceOnUse" x1="930" y1="0" x2="1060" y2="0"><stop offset="0" stop-color="#7E9A2E" stop-opacity="0"/><stop offset="1" stop-color="#7E9A2E" stop-opacity="1"/></linearGradient>
    <linearGradient id="km-fade-field-2" gradientUnits="userSpaceOnUse" x1="930" y1="0" x2="1060" y2="0"><stop offset="0" stop-color="#A9C24A" stop-opacity="0"/><stop offset="1" stop-color="#A9C24A" stop-opacity="1"/></linearGradient>
    <linearGradient id="km-ground-1" gradientUnits="userSpaceOnUse" x1="420" y1="0" x2="1220" y2="0"><stop offset="0" stop-color="#525C12"/><stop offset="0.34" stop-color="#525C12"/><stop offset="0.5" stop-color="#6A7E2A"/><stop offset="0.66" stop-color="#7E9A2E"/><stop offset="1" stop-color="#7E9A2E"/></linearGradient>
    <linearGradient id="km-ground-2" gradientUnits="userSpaceOnUse" x1="420" y1="0" x2="1220" y2="0"><stop offset="0" stop-color="#7D8A26"/><stop offset="0.34" stop-color="#7D8A26"/><stop offset="0.5" stop-color="#93A83E"/><stop offset="0.66" stop-color="#A9C24A"/><stop offset="1" stop-color="#A9C24A"/></linearGradient>
    <radialGradient id="km-pool-g"><stop offset="0" stop-color="#FFC37A" stop-opacity="0.55"/><stop offset="1" stop-color="#FFC37A" stop-opacity="0"/></radialGradient>
    <clipPath id="km-moon-clip"><use href="#km-moon-lit"/></clipPath>
    
    <symbol id="star" viewBox="-10 -10 20 20"><path d="M0 -10 C1.2 -2.5 2.5 -1.2 10 0 C2.5 1.2 1.2 2.5 0 10 C-1.2 2.5 -2.5 1.2 -10 0 C-2.5 -1.2 -1.2 -2.5 0 -10 Z" fill="#FFFFFF"/></symbol>
  </defs>
<g filter="url(#layer-sm)"><ellipse cx="45" cy="56" rx="34.6" ry="6" fill="#1A2433" opacity="0.16"/><path d="M14 50 C2 50 -2 34 10 28 C6 14 22 4 34 12 C40 0 62 -2 68 12 C82 8 92 22 84 32 C94 38 90 54 76 52 Z" fill="#A8946E" transform="translate(0 4)"/><path d="M14 50 C2 50 -2 34 10 28 C6 14 22 4 34 12 C40 0 62 -2 68 12 C82 8 92 22 84 32 C94 38 90 54 76 52 Z" fill="#D9C9A8"/><path d="M14 50 C4 48 2 38 10 32 C14 44 40 48 76 48 C82 46 86 42 88 38 C90 50 84 54 76 52 Z" fill="#C2AF8A"/><path d="M18 26 C20 18 28 14 34 16 M44 10 C50 6 60 6 64 12" stroke="#FFFFFF" stroke-width="3" stroke-linecap="round" fill="none" opacity="0.8"/><ellipse cx="36" cy="30" rx="4.6" ry="5.4" fill="#FFFFFF"/><circle cx="37" cy="29" r="2.7" fill="#1A2433"/><circle cx="38.1" cy="27.7" r="1" fill="#FFFFFF"/><ellipse cx="54" cy="30" rx="4.6" ry="5.4" fill="#FFFFFF"/><circle cx="55" cy="29" r="2.7" fill="#1A2433"/><circle cx="56.1" cy="27.7" r="1" fill="#FFFFFF"/><path d="M31 22 q5 -4 10 -1 M49 21 q5 -3 10 1" stroke="#8A7550" stroke-width="2" stroke-linecap="round" stroke-linejoin="round" fill="none"/><path d="M39.4 39.3 Q45 47 50.6 39.3 Q45 41.4 39.4 39.3 Z" fill="#5A4A30"/><path d="M42.2 42.8 q2.8 2.1 5.6 0 q-2.8 -1.4 -5.6 0 Z" fill="#D96A4A"/><ellipse cx="29" cy="39" rx="5.6" ry="3.4" fill="#FFB36B" opacity="0.75"/><ellipse cx="61" cy="39" rx="5.6" ry="3.4" fill="#FFB36B" opacity="0.75"/><ellipse cx="2" cy="40" rx="6" ry="5" fill="#D9C9A8"/><ellipse cx="90" cy="40" rx="6" ry="5" fill="#D9C9A8"/></g>
</svg>
