<svg xmlns="http://www.w3.org/2000/svg" viewBox="0 0 96 96" role="img" aria-label="Tumble's mark: the keeper of Whistle Meadow">
  <defs>
    <filter id="mark-layer" x="-10%" y="-10%" width="120%" height="130%">
      <feFlood flood-color="#1A2433" flood-opacity="0.18" result="ink"/>
      <feComposite in="ink" in2="SourceAlpha" operator="in" result="sil"/>
      <feOffset in="sil" dy="2" result="drop"/>
      <feMerge><feMergeNode in="drop"/><feMergeNode in="SourceGraphic"/></feMerge>
    </filter>
    <clipPath id="mark-disc"><circle cx="48" cy="46" r="44"/></clipPath>
  </defs>
  <g filter="url(#mark-layer)">
    <circle cx="48" cy="46" r="44" fill="#DDEBA6"/>
  </g>
  <g clip-path="url(#mark-disc)">
    <ellipse cx="48" cy="92" rx="52" ry="16" fill="#C2D77A"/>
    <path d="M6 84 l4 -12 l3 12 Z M84 84 l4 -13 l3 13 Z M18 88 l3 -9 l3 9 Z" fill="#9DB54E"/>
    <g filter="url(#mark-layer)">
      <path d="M40 40 C34 28 30 14 32 4 C38 14 44 28 46 38 Z" fill="#9DB54E"/>
      <path d="M43 39 C39 29 37 18 39 10 C43 20 47 30 48 38 Z" fill="#C2D77A"/>
      <path d="M56 38 C60 26 70 16 84 14 C76 22 66 30 62 40 Z" fill="#9DB54E"/>
      <path d="M58 38 C62 30 68 24 78 22 C72 28 66 34 63 40 Z" fill="#C2D77A"/>
    </g>
    <g filter="url(#mark-layer)">
      <path d="M16 96 C16 56 28 34 48 34 C68 34 80 56 80 96 Z" fill="#8E4E1E"/>
    </g>
    <path d="M45 35 q1 -6 4 -8 q-1 4 -1 8 Z M51 35 q3 -5 7 -6 q-3 3 -4 7 Z" fill="#B06A2F"/>
    <path d="M26 58 q6 -6 14 -6 q-8 2 -13 8 Z M60 50 q8 0 13 6 q-7 -3 -13 -4 Z M24 76 q4 -6 10 -8 q-5 4 -8 9 Z" fill="#B06A2F"/>
    <path d="M36 50 q4 -3 8 0 M52 50 q4 -3 8 0" fill="none" stroke="#6E3A12" stroke-width="2" stroke-linecap="round"/>
    <circle cx="40" cy="57" r="4" fill="#1A2433"/>
    <circle cx="56" cy="57" r="4" fill="#1A2433"/>
    <circle cx="38.6" cy="55.6" r="1.4" fill="#FFFFFF"/>
    <circle cx="54.6" cy="55.6" r="1.4" fill="#FFFFFF"/>
    <ellipse cx="33" cy="65" rx="4.5" ry="3" fill="#E5B07A"/>
    <ellipse cx="63" cy="65" rx="4.5" ry="3" fill="#E5B07A"/>
    <path d="M44 65 Q48 69 52 65" fill="none" stroke="#1A2433" stroke-width="2" stroke-linecap="round"/>
    <path d="M34 64 Q40 78 45 80 M62 64 Q56 78 51 80" fill="none" stroke="#FFFFFF" stroke-width="2"/>
    <g filter="url(#mark-layer)">
      <rect x="38" y="77" width="22" height="8" rx="4" fill="#FFFFFF"/>
      <rect x="46" y="77" width="3" height="8" fill="#1F5C6E"/>
      <rect x="52" y="79" width="1.6" height="4" rx="0.8" fill="#1A2433"/>
      <rect x="55" y="79" width="1.6" height="4" rx="0.8" fill="#1A2433"/>
    </g>
  </g>
</svg>
